<svg width="172" height="146" viewBox="0 0 172 146" fill="none" xmlns="http://www.w3.org/2000/svg">
<g clip-path="url(#clip0_211_216)">
<mask id="mask0_211_216" style="mask-type:luminance" maskUnits="userSpaceOnUse" x="0" y="0" width="172" height="146">
<path d="M172 0H0V146H172V0Z" fill="white"/>
</mask>
<g mask="url(#mask0_211_216)">
<path d="M49.7932 0.207031C67.6412 0.207031 82.8252 13.223 85.5532 30.8604C88.2785 48.5004 77.7371 65.4924 60.7211 70.8844C58.3158 71.647 55.9558 72.3938 53.6492 73.1244C21.8544 83.1991 0.249023 112.706 0.249023 146.058V146.061V0.207031H49.7932Z" stroke="#DEAE6B" stroke-width="4.00001"/>
<path d="M122.166 146.061C104.318 146.061 89.1341 133.044 86.4088 115.404C83.6808 97.7671 94.2222 80.7724 111.238 75.3831C113.644 74.6204 116.004 73.8737 118.31 73.1404C150.105 63.0684 171.71 33.5591 171.71 0.207031V146.061H122.166Z" stroke="#DEAE6B" stroke-width="4.00001"/>
<path d="M35.3505 66.2125C13.3051 52.4445 0.249023 27.0871 0.249023 0.207031V146.061H49.7932C67.6412 146.061 82.8252 133.044 85.5532 115.404C87.6598 101.78 81.8492 87.5937 71.2545 79.719" stroke="#DEAE6B" stroke-width="4.00001"/>
<path d="M136.61 80.0551C158.655 93.8231 171.711 119.18 171.711 146.058V146.061V0.207031H122.167C104.319 0.207031 89.135 13.223 86.4097 30.8604C84.303 44.4844 90.1111 58.6738 100.706 66.5458" stroke="#DEAE6B" stroke-width="4.00001"/>
<path d="M0.249023 0.207031C29.7077 0.207031 53.6251 32.8843 53.6251 73.135C53.6251 113.383 29.7077 146.061 0.249023 146.061" stroke="#DEAE6B" stroke-width="4.00001"/>
<path d="M171.711 146.059C142.252 146.059 118.335 113.381 118.335 73.1334C118.335 32.8853 142.252 0.208008 171.711 0.208008" stroke="#DEAE6B" stroke-width="4.00001"/>
</g>
</g>
<defs>
<clipPath id="clip0_211_216">
<rect width="172" height="146" fill="white"/>
</clipPath>
</defs>
</svg>
